<svg width="13" height="16" viewBox="0 0 13 16" fill="none" xmlns="http://www.w3.org/2000/svg">
<g id="Icon">
<path id="Star 3" d="M6.26421 4.27369C6.38451 3.94859 6.84433 3.94859 6.96462 4.27369L7.98266 7.02488C8.09612 7.33151 8.33788 7.57327 8.64451 7.68673L11.3957 8.70476C11.7208 8.82506 11.7208 9.28488 11.3957 9.40518L8.64451 10.4232C8.33788 10.5367 8.09612 10.7784 7.98265 11.0851L6.96462 13.8363C6.84433 14.1614 6.38451 14.1613 6.26421 13.8362L5.24618 11.0851C5.13272 10.7784 4.89096 10.5367 4.58432 10.4232L1.83314 9.40517C1.50804 9.28488 1.50804 8.82506 1.83314 8.70476L4.58433 7.68673C4.89096 7.57327 5.13272 7.33151 5.24618 7.02488L6.26421 4.27369Z" fill="white"/>
<path id="Star 4" d="M10.9915 10.075C11.0517 9.91247 11.2816 9.91247 11.3417 10.075L11.542 10.6162C11.5609 10.6674 11.6012 10.7076 11.6523 10.7266L12.1936 10.9268C12.3561 10.987 12.3561 11.2169 12.1936 11.277L11.6523 11.4773C11.6012 11.4962 11.5609 11.5365 11.542 11.5876L11.3417 12.1289C11.2816 12.2914 11.0517 12.2914 10.9915 12.1289L10.7913 11.5876C10.7723 11.5365 10.7321 11.4962 10.6809 11.4773L10.1397 11.277C9.97716 11.2169 9.97716 10.987 10.1397 10.9268L10.6809 10.7266C10.7321 10.7076 10.7723 10.6674 10.7913 10.6162L10.9915 10.075Z" fill="white"/>
<path id="Star 6" d="M2.83518 1.61304C2.95548 1.28794 3.41529 1.28794 3.53559 1.61304L3.93293 2.68683C3.97075 2.78904 4.05134 2.86963 4.15355 2.90745L5.22733 3.30478C5.55243 3.42508 5.55243 3.8849 5.22733 4.0052L4.15355 4.40253C4.05134 4.44035 3.97075 4.52094 3.93293 4.62315L3.53559 5.69694C3.41529 6.02204 2.95548 6.02204 2.83518 5.69694L2.43784 4.62315C2.40002 4.52094 2.31944 4.44035 2.21722 4.40253L1.14344 4.0052C0.818339 3.8849 0.818339 3.42508 1.14344 3.30478L2.21722 2.90745C2.31943 2.86963 2.40002 2.78904 2.43784 2.68683L2.83518 1.61304Z" fill="white"/>
<path id="Star 5" d="M9.6602 3.15698L10.0416 4.18782C10.0984 4.34114 10.2193 4.46202 10.3726 4.51875L11.4034 4.90019L10.3726 5.28164C10.2193 5.33837 10.0984 5.45925 10.0416 5.61257L9.6602 6.64341L9.27876 5.61257C9.22203 5.45925 9.10115 5.33837 8.94783 5.28164L7.91699 4.90019L8.94783 4.51875C9.10115 4.46202 9.22203 4.34114 9.27876 4.18782L9.6602 3.15698Z" fill="white"/>
<path id="Star 7" d="M3.18842 11.2838C3.31981 11.1708 3.52091 11.2822 3.49474 11.4536L3.35631 12.3597C3.34808 12.4135 3.36379 12.4683 3.39933 12.5096L3.99709 13.2045C4.11011 13.3359 3.99868 13.537 3.82735 13.5109L2.92123 13.3724C2.86736 13.3642 2.81259 13.3799 2.77128 13.4155L2.07636 14.0132C1.94497 14.1262 1.74387 14.0148 1.77004 13.8435L1.90847 12.9374C1.9167 12.8835 1.90098 12.8287 1.86545 12.7874L1.26769 12.0925C1.15467 11.9611 1.2661 11.76 1.43743 11.7862L2.34355 11.9246C2.39742 11.9328 2.45219 11.9171 2.4935 11.8816L3.18842 11.2838Z" fill="white"/>
</g>
</svg>
