<svg width="21" height="20" viewBox="0 0 21 20" fill="none" xmlns="http://www.w3.org/2000/svg">
<g id="Search">
<path id="Vector" d="M15.0441 14.5442L18.75 18.25M9.82217 2.5C8.47288 2.5 7.15388 2.9001 6.03198 3.64972C4.91008 4.39933 4.03566 5.46478 3.51931 6.71134C3.00296 7.9579 2.86785 9.32958 3.13109 10.6529C3.39432 11.9763 4.04407 13.1918 4.99817 14.1459C5.95227 15.1 7.16786 15.7497 8.49123 16.0129C9.81461 16.2762 11.1863 16.1411 12.4329 15.6247C13.6795 15.1084 14.745 14.234 15.4946 13.1121C16.2442 11.9902 16.6443 10.6713 16.6443 9.32201C16.6442 7.51274 15.9254 5.7776 14.646 4.49825C13.3667 3.2189 11.6315 2.50012 9.82217 2.5Z" stroke="#1E1E1E" stroke-width="1.5" stroke-miterlimit="10" stroke-linecap="round"/>
</g>
</svg>
